<?xml version="1.0" encoding="UTF-8" standalone="no"?>
<!-- Created with Inkscape (http://www.inkscape.org/) -->

<svg
   viewBox="0 80 400 280"
   version="1.1"
   id="svg1"
   inkscape:version="1.4.2 (ebf0e940d0, 2025-05-08)"
   sodipodi:docname="logo.svg"
   xmlns:inkscape="http://www.inkscape.org/namespaces/inkscape"
   xmlns:sodipodi="http://sodipodi.sourceforge.net/DTD/sodipodi-0.dtd"
   xmlns="http://www.w3.org/2000/svg"
   xmlns:svg="http://www.w3.org/2000/svg">
  <sodipodi:namedview
     id="namedview1"
     pagecolor="#ffffff"
     bordercolor="#000000"
     borderopacity="0.25"
     inkscape:showpageshadow="2"
     inkscape:pageopacity="0.0"
     inkscape:pagecheckerboard="0"
     inkscape:deskcolor="#d1d1d1"
     inkscape:document-units="px"
     showguides="true"
     inkscape:zoom="1.4948513"
     inkscape:cx="99.340984"
     inkscape:cy="386.32605"
     inkscape:window-width="1896"
     inkscape:window-height="1024"
     inkscape:window-x="0"
     inkscape:window-y="0"
     inkscape:window-maximized="1"
     inkscape:current-layer="layer1">
    <sodipodi:guide
       position="200,200"
       orientation="-1,0"
       id="guide1"
       inkscape:locked="false"
       inkscape:label=""
       inkscape:color="rgb(0,134,229)" />
    <sodipodi:guide
       position="200,200"
       orientation="0,1"
       id="guide2"
       inkscape:locked="false"
       inkscape:label=""
       inkscape:color="rgb(0,134,229)" />
    <sodipodi:guide
       position="288.79075,300"
       orientation="0,1"
       id="guide3"
       inkscape:locked="false"
       inkscape:label=""
       inkscape:color="rgb(0,134,229)" />
    <sodipodi:guide
       position="293.48394,100"
       orientation="0,1"
       id="guide4"
       inkscape:locked="false"
       inkscape:label=""
       inkscape:color="rgb(0,134,229)" />
    <sodipodi:guide
       position="100,218.30864"
       orientation="-1,0"
       id="guide5"
       inkscape:locked="false"
       inkscape:label=""
       inkscape:color="rgb(0,134,229)" />
    <sodipodi:guide
       position="300,185.79077"
       orientation="-1,0"
       id="guide6"
       inkscape:locked="false"
       inkscape:label=""
       inkscape:color="rgb(0,134,229)" />
    <sodipodi:guide
       position="135,216.9381"
       orientation="-1,0"
       id="guide9"
       inkscape:locked="false"
       inkscape:label=""
       inkscape:color="rgb(0,134,229)" />
    <sodipodi:guide
       position="245,194.38211"
       orientation="-1,0"
       id="guide10"
       inkscape:locked="false"
       inkscape:label=""
       inkscape:color="rgb(0,134,229)" />
    <sodipodi:guide
       position="225,199.9801"
       orientation="-1,0"
       id="guide11"
       inkscape:locked="false"
       inkscape:label=""
       inkscape:color="rgb(0,134,229)" />
  </sodipodi:namedview>
  <defs
     id="defs1">
    <inkscape:path-effect
       effect="fillet_chamfer"
       id="path-effect8"
       is_visible="true"
       lpeversion="1"
       nodesatellites_param="F,0,0,1,0,6,0,1 @ F,0,0,1,0,6,0,1 @ F,0,0,1,0,6,0,1 @ F,0,0,1,0,6,0,1"
       radius="0"
       unit="px"
       method="auto"
       mode="F"
       chamfer_steps="1"
       flexible="false"
       use_knot_distance="true"
       apply_no_radius="true"
       apply_with_radius="true"
       only_selected="false"
       hide_knots="false" />
    <inkscape:path-effect
       effect="fillet_chamfer"
       id="path-effect7"
       is_visible="true"
       lpeversion="1"
       nodesatellites_param="F,0,1,1,0,5.2848058,0,1 @ F,0,1,1,0,5.2848058,0,1 @ F,0,1,1,0,5.2848058,0,1 @ F,0,1,1,0,5.2848058,0,1"
       radius="0"
       unit="px"
       method="auto"
       mode="F"
       chamfer_steps="1"
       flexible="false"
       use_knot_distance="true"
       apply_no_radius="true"
       apply_with_radius="true"
       only_selected="false"
       hide_knots="false" />
    <inkscape:path-effect
       effect="fillet_chamfer"
       id="path-effect6"
       is_visible="true"
       lpeversion="1"
       nodesatellites_param="F,0,1,1,0,18.567842,0,1 @ F,0,1,1,0,18.567842,0,1 @ F,0,1,1,0,18.567842,0,1 @ F,0,1,1,0,18.567842,0,1"
       radius="0"
       unit="px"
       method="auto"
       mode="F"
       chamfer_steps="1"
       flexible="false"
       use_knot_distance="true"
       apply_no_radius="true"
       apply_with_radius="true"
       only_selected="false"
       hide_knots="false" />
    <inkscape:path-effect
       effect="fillet_chamfer"
       id="path-effect7-2"
       is_visible="true"
       lpeversion="1"
       nodesatellites_param="F,0,1,1,0,5.2848058,0,1 @ F,0,1,1,0,5.2848058,0,1 @ F,0,1,1,0,5.2848058,0,1 @ F,0,1,1,0,5.2848058,0,1"
       radius="0"
       unit="px"
       method="auto"
       mode="F"
       chamfer_steps="1"
       flexible="false"
       use_knot_distance="true"
       apply_no_radius="true"
       apply_with_radius="true"
       only_selected="false"
       hide_knots="false" />
    <inkscape:path-effect
       effect="fillet_chamfer"
       id="path-effect7-2-2"
       is_visible="true"
       lpeversion="1"
       nodesatellites_param="F,0,1,1,0,5.2848058,0,1 @ F,0,1,1,0,5.2848058,0,1 @ F,0,1,1,0,5.2848058,0,1 @ F,0,1,1,0,5.2848058,0,1"
       radius="0"
       unit="px"
       method="auto"
       mode="F"
       chamfer_steps="1"
       flexible="false"
       use_knot_distance="true"
       apply_no_radius="true"
       apply_with_radius="true"
       only_selected="false"
       hide_knots="false" />
    <inkscape:path-effect
       effect="fillet_chamfer"
       id="path-effect6-7"
       is_visible="true"
       lpeversion="1"
       nodesatellites_param="F,0,1,1,0,18.567842,0,1 @ F,0,1,1,0,18.567842,0,1 @ F,0,1,1,0,18.567842,0,1 @ F,0,1,1,0,18.567842,0,1"
       radius="0"
       unit="px"
       method="auto"
       mode="F"
       chamfer_steps="1"
       flexible="false"
       use_knot_distance="true"
       apply_no_radius="true"
       apply_with_radius="true"
       only_selected="false"
       hide_knots="false" />
  </defs>
  <g
     inkscape:label="Слой 1"
     inkscape:groupmode="layer"
     id="layer1">
    <rect
       style="fill:#0f172a;fill-opacity:1;stroke-width:1.01347"
       id="rect1"
       width="400"
       height="400"
       x="0"
       y="0" />
    <path
       id="rect6-5"
       style="fill:#080e21;fill-opacity:1;stroke:none;stroke-width:3.77953;stroke-miterlimit:1"
       d="M 118.56784,100 H 281.43216 A 18.567842,18.567842 45 0 1 300,118.56784 V 281.43216 A 18.567842,18.567842 135 0 1 281.43216,300 H 118.56784 A 18.567842,18.567842 45 0 1 100,281.43216 V 118.56784 A 18.567842,18.567842 135 0 1 118.56784,100 Z"
       inkscape:path-effect="#path-effect6-7"
       inkscape:original-d="M 100,100 H 300 V 300 H 100 Z"
       sodipodi:nodetypes="ccccc"
       transform="translate(5.798638,10.113921)" />
    <path
       id="rect6"
       style="fill:#1e293b;stroke:#3b82f6;stroke-width:3.77953;stroke-miterlimit:1"
       d="M 118.56784,100 H 281.43216 A 18.567842,18.567842 45 0 1 300,118.56784 V 281.43216 A 18.567842,18.567842 135 0 1 281.43216,300 H 118.56784 A 18.567842,18.567842 45 0 1 100,281.43216 V 118.56784 A 18.567842,18.567842 135 0 1 118.56784,100 Z"
       inkscape:path-effect="#path-effect6"
       inkscape:original-d="M 100,100 H 300 V 300 H 100 Z"
       sodipodi:nodetypes="ccccc" />
    <g
       id="g18"
       transform="translate(-16.933594,-41.97742)">
      <circle
         style="fill:#59687e;fill-opacity:1;stroke:none;stroke-width:0.377953;stroke-linecap:butt;stroke-linejoin:miter;stroke-miterlimit:1;stroke-dasharray:none;stroke-opacity:1"
         id="path17-3-4"
         cx="233.86719"
         cy="317.55179"
         r="4" />
      <circle
         style="fill:#59687e;fill-opacity:1;stroke:none;stroke-width:0.377953;stroke-linecap:butt;stroke-linejoin:miter;stroke-miterlimit:1;stroke-dasharray:none;stroke-opacity:1"
         id="path17-3-1"
         cx="250.80078"
         cy="317.55179"
         r="4" />
      <circle
         style="fill:#59687e;fill-opacity:1;stroke:none;stroke-width:0.377953;stroke-linecap:butt;stroke-linejoin:miter;stroke-miterlimit:1;stroke-dasharray:none;stroke-opacity:1"
         id="path17-31"
         cx="200"
         cy="317.55179"
         r="4" />
      <circle
         style="fill:#59687e;fill-opacity:1;stroke:none;stroke-width:0.377953;stroke-linecap:butt;stroke-linejoin:miter;stroke-miterlimit:1;stroke-dasharray:none;stroke-opacity:1"
         id="path17-3"
         cx="216.93359"
         cy="317.55179"
         r="4" />
      <circle
         style="fill:#3b82f6;fill-opacity:1;stroke:none;stroke-width:0.377953;stroke-linecap:butt;stroke-linejoin:miter;stroke-miterlimit:1;stroke-dasharray:none;stroke-opacity:1"
         id="path17-2"
         cx="183.06641"
         cy="317.55179"
         r="4" />
    </g>
    <g
       id="g17"
       transform="translate(-323.78046,23.00484)">
      <path
         id="rect7-9-7"
         style="fill:#2b374b;fill-opacity:1;stroke:#374357;stroke-width:3.02362;stroke-miterlimit:1;stroke-opacity:1"
         d="m 362.51098,220.75775 h 145.96768 a 5.2848058,5.2848058 45 0 1 5.28481,5.28481 v 38.93363 a 5.2848058,5.2848058 135 0 1 -5.28481,5.28481 H 362.51098 a 5.2848058,5.2848058 45 0 1 -5.28481,-5.28481 v -38.93363 a 5.2848058,5.2848058 135 0 1 5.28481,-5.28481 z"
         inkscape:path-effect="#path-effect7-2-2"
         inkscape:original-d="m 357.22617,220.75775 h 156.5373 V 270.261 h -156.5373 z"
         transform="translate(88.28564,-93.245939)" />
      <rect
         style="fill:#48566b;fill-opacity:1;stroke:none;stroke-width:3.27679;stroke-linecap:butt;stroke-linejoin:miter;stroke-miterlimit:1;stroke-dasharray:none;stroke-opacity:1"
         id="rect9-3-9"
         width="110"
         height="3.42946"
         x="458.78046"
         y="138.8642" />
    </g>
    <g
       id="g16"
       transform="translate(-253.78046,-21.759296)">
      <path
         id="rect7-9"
         style="fill:#323f53;fill-opacity:1;stroke:#445165;stroke-width:3.02362;stroke-miterlimit:1;stroke-opacity:1"
         d="m 362.51098,220.75775 h 145.96768 a 5.2848058,5.2848058 45 0 1 5.28481,5.28481 v 38.93363 a 5.2848058,5.2848058 135 0 1 -5.28481,5.28481 H 362.51098 a 5.2848058,5.2848058 45 0 1 -5.28481,-5.28481 v -38.93363 a 5.2848058,5.2848058 135 0 1 5.28481,-5.28481 z"
         inkscape:path-effect="#path-effect7-2"
         inkscape:original-d="m 357.22617,220.75775 h 156.5373 V 270.261 h -156.5373 z"
         transform="translate(18.28564,-20.245939)" />
      <rect
         style="fill:#59687e;fill-opacity:1;stroke:none;stroke-width:3.27679;stroke-linecap:butt;stroke-linejoin:miter;stroke-miterlimit:1;stroke-dasharray:none;stroke-opacity:1"
         id="rect9-3"
         width="110"
         height="3.42946"
         x="388.78046"
         y="211.8642" />
    </g>
    <path
       id="rect7"
       style="fill:#1e3a8a;fill-opacity:1;stroke:#3b82f6;stroke-width:3.02362;stroke-miterlimit:1;stroke-opacity:1"
       d="m 362.51098,220.75775 h 145.96768 a 5.2848058,5.2848058 45 0 1 5.28481,5.28481 v 38.93363 a 5.2848058,5.2848058 135 0 1 -5.28481,5.28481 H 362.51098 a 5.2848058,5.2848058 45 0 1 -5.28481,-5.28481 v -38.93363 a 5.2848058,5.2848058 135 0 1 5.28481,-5.28481 z"
       inkscape:path-effect="#path-effect7"
       inkscape:original-d="m 357.22617,220.75775 h 156.5373 V 270.261 h -156.5373 z"
       transform="translate(-235.49482,-20.737849)" />
    <rect
       style="fill:#60a5fa;fill-opacity:1;stroke:none;stroke-width:3.27679;stroke-linecap:butt;stroke-linejoin:miter;stroke-miterlimit:1;stroke-dasharray:none;stroke-opacity:1"
       id="rect9"
       width="110"
       height="3.42946"
       x="135"
       y="211.37228" />
    <rect
       style="fill:#60a5fa;fill-opacity:1;stroke:none;stroke-width:2.96397;stroke-linecap:butt;stroke-linejoin:miter;stroke-miterlimit:1;stroke-dasharray:none;stroke-opacity:1"
       id="rect9-2"
       width="90"
       height="3.42946"
       x="135"
       y="221.90248" />
    <circle
       style="fill:#ef4444;fill-opacity:1;stroke:none;stroke-width:0.377953;stroke-linecap:butt;stroke-linejoin:miter;stroke-miterlimit:1;stroke-dasharray:none;stroke-opacity:1"
       id="path17"
       cx="268.75299"
       cy="209.532"
       r="4" />
    <g
       transform="translate(200,117.01247)"
       id="g5">
      <!-- Clipboard top clip -->
      <rect
         x="-20"
         y="0"
         width="40"
         height="8"
         rx="4"
         fill="#64748b"
         id="rect4" />
      <rect
         x="-15"
         y="3"
         width="30"
         height="10"
         rx="3"
         fill="#475569"
         id="rect5" />
    </g>
    <path
       style="font-size:32px;font-family:'Ubuntu Mono';-inkscape-font-specification:'Ubuntu Mono';fill:#ffffff;stroke-width:0.377953;stroke-miterlimit:1"
       d="m 145.232,332.00598 q 0,-2.016 0.64,-3.488 0.64,-1.472 1.76,-2.432 1.12,-0.96 2.592,-1.408 1.504,-0.48 3.2,-0.48 1.088,0 2.144,0.16 1.088,0.128 2.304,0.512 l -0.608,2.272 q -1.056,-0.384 -1.952,-0.48 -0.864,-0.128 -1.76,-0.128 -1.152,0 -2.176,0.32 -1.024,0.288 -1.792,0.96 -0.736,0.64 -1.184,1.696 -0.448,1.024 -0.448,2.496 0,1.408 0.416,2.432 0.416,0.992 1.152,1.664 0.768,0.64 1.824,0.96 1.056,0.32 2.336,0.32 1.024,0 1.952,-0.096 0.96,-0.128 2.08,-0.512 l 0.384,2.208 q -1.12,0.416 -2.272,0.576 -1.152,0.192 -2.496,0.192 -1.792,0 -3.296,-0.48 -1.472,-0.512 -2.56,-1.472 -1.056,-0.96 -1.664,-2.4 -0.576,-1.472 -0.576,-3.392 z m 25.248,7.744 q -1.408,0 -2.336,-0.384 -0.928,-0.384 -1.472,-1.152 -0.544,-0.768 -0.768,-1.888 -0.224,-1.152 -0.224,-2.656 v -14.048 h -4.288 v -2.24 h 6.912 v 16.288 q 0,1.12 0.128,1.824 0.16,0.704 0.448,1.152 0.32,0.416 0.768,0.576 0.448,0.16 1.056,0.16 0.928,0 1.728,-0.224 0.8,-0.224 1.248,-0.48 l 0.384,2.24 q -0.192,0.096 -0.544,0.256 -0.352,0.128 -0.832,0.256 -0.48,0.128 -1.056,0.224 -0.544,0.096 -1.152,0.096 z m 11.872,-17.504 q -0.832,0 -1.44,-0.576 -0.608,-0.576 -0.608,-1.568 0,-0.992 0.608,-1.568 0.608,-0.576 1.44,-0.576 0.864,0 1.44,0.576 0.608,0.576 0.608,1.568 0,0.992 -0.608,1.568 -0.576,0.576 -1.44,0.576 z m -0.672,4.512 h -4.288 v -2.208 h 6.912 v 9.12 q 0,2.208 0.608,2.976 0.608,0.736 1.824,0.736 0.928,0 1.696,-0.224 0.8,-0.224 1.248,-0.48 l 0.384,2.24 q -0.192,0.096 -0.544,0.256 -0.352,0.128 -0.832,0.256 -0.448,0.128 -1.024,0.224 -0.544,0.096 -1.152,0.096 -1.408,0 -2.336,-0.384 -0.928,-0.384 -1.504,-1.152 -0.544,-0.768 -0.768,-1.888 -0.224,-1.152 -0.224,-2.656 z m 21.984,5.248 q 0,-2.592 -1.216,-4 -1.216,-1.44 -3.168,-1.44 -1.088,0 -1.728,0.096 -0.608,0.096 -0.96,0.224 v 9.376 q 0.448,0.416 1.312,0.768 0.864,0.352 1.792,0.352 1.056,0 1.792,-0.416 0.768,-0.416 1.248,-1.12 0.48,-0.736 0.704,-1.696 0.224,-0.992 0.224,-2.144 z m 2.72,0 q 0,1.696 -0.448,3.136 -0.416,1.408 -1.248,2.432 -0.8,1.024 -1.984,1.6 -1.184,0.576 -2.688,0.576 -1.184,0 -2.08,-0.288 -0.896,-0.288 -1.344,-0.64 v 5.856 h -2.656 v -19.68 q 0.864,-0.256 2.208,-0.512 1.376,-0.256 3.136,-0.256 1.6,0 2.912,0.544 1.312,0.544 2.24,1.568 0.928,0.992 1.44,2.432 0.512,1.44 0.512,3.232 z m 6.208,-6.912 q 0.48,-0.288 1.376,-0.576 0.928,-0.32 2.048,-0.32 1.504,0 2.688,0.576 1.184,0.576 1.984,1.6 0.832,1.024 1.248,2.464 0.448,1.408 0.448,3.136 0,1.792 -0.512,3.232 -0.512,1.44 -1.44,2.464 -0.928,0.992 -2.24,1.536 -1.312,0.544 -2.912,0.544 -1.76,0 -3.136,-0.256 -1.376,-0.256 -2.208,-0.512 v -21.312 l 2.656,-0.448 z m 0,12 q 0.608,0.16 1.216,0.256 0.608,0.064 1.152,0.064 2.208,0 3.456,-1.344 1.248,-1.376 1.248,-4.096 0,-1.152 -0.224,-2.144 -0.224,-1.024 -0.704,-1.728 -0.48,-0.736 -1.248,-1.152 -0.736,-0.416 -1.792,-0.416 -0.928,0 -1.792,0.384 -0.864,0.352 -1.312,0.768 z m 25.792,-5.12 q 0,1.76 -0.512,3.2 -0.48,1.408 -1.376,2.432 -0.896,1.024 -2.144,1.6 -1.248,0.544 -2.72,0.544 -1.44,0 -2.688,-0.544 -1.216,-0.576 -2.112,-1.6 -0.896,-1.024 -1.408,-2.432 -0.48,-1.44 -0.48,-3.2 0,-1.76 0.48,-3.2 0.512,-1.44 1.408,-2.432 0.896,-1.024 2.112,-1.568 1.248,-0.576 2.688,-0.576 1.472,0 2.72,0.576 1.248,0.544 2.144,1.568 0.896,0.992 1.376,2.432 0.512,1.44 0.512,3.2 z m -2.72,0 q 0,-2.528 -1.088,-3.968 -1.088,-1.472 -2.944,-1.472 -1.824,0 -2.912,1.472 -1.056,1.44 -1.056,3.968 0,2.496 1.056,3.968 1.088,1.44 2.912,1.44 1.856,0 2.944,-1.44 1.088,-1.472 1.088,-3.968 z m 16.16,7.424 q -0.32,-0.64 -0.8,-1.408 -0.448,-0.768 -0.992,-1.568 -0.544,-0.832 -1.152,-1.632 -0.576,-0.8 -1.152,-1.504 -0.576,0.736 -1.216,1.536 -0.64,0.8 -1.248,1.632 -0.576,0.8 -1.088,1.568 -0.512,0.768 -0.864,1.376 h -2.72 q 1.056,-1.92 2.56,-3.936 1.536,-2.048 3.008,-3.872 l -5.344,-7.04 h 2.976 l 4,5.184 3.68,-5.184 h 2.816 l -4.896,6.88 q 1.44,1.888 2.88,3.936 1.472,2.048 2.496,4.032 z"
       id="text18"
       aria-label="clipbox" />
  </g>
</svg>
